<svg width="48" height="48" viewBox="0 0 48 48" fill="none" xmlns="http://www.w3.org/2000/svg">
<rect x="0.341309" y="0.413086" width="47.2306" height="47.2306" rx="15" fill="#FFF3C7"/>
<path d="M6.45654 36.9212H11.5355M40.3456 36.9212H11.5355M11.5355 36.9212C11.4188 34.3526 12.8315 28.0333 17.1399 25.9317M17.1399 25.9317C18.8584 27.6501 19.8218 28.6135 21.5403 30.3319M17.1399 25.9317L13.0899 21.8818" stroke="#FFA800" stroke-width="1.66257"/>
<rect width="10.3062" height="17.443" rx="1.66257" transform="matrix(0.707119 0.707095 -0.707119 0.707095 34.1689 12.644)" fill="#FFA800"/>
<path d="M33.3305 22.0422C33.9798 22.6914 33.9798 23.7441 33.3305 24.3934L28.4654 29.2583C27.8161 29.9075 26.7634 29.9075 26.1142 29.2583L16.2372 19.3817C15.6679 18.8123 15.6679 17.8893 16.2372 17.3199C19.6533 13.9039 25.192 13.9039 28.6081 17.3199L33.3305 22.0422Z" fill="#FFA800"/>
<path d="M6.45671 36.0886C5.99761 36.0886 5.62543 36.4608 5.62543 36.9199C5.62543 37.379 5.99761 37.7512 6.45671 37.7512V36.0886ZM9.94873 36.0886H6.45671V37.7512H9.94873V36.0886Z" fill="#FFA800"/>
<path d="M13.6274 21.2473C13.3027 20.9226 12.7764 20.9226 12.4517 21.2473C12.1271 21.5719 12.1271 22.0982 12.4517 22.4228L13.6274 21.2473ZM16.0966 23.7164L13.6274 21.2473L12.4517 22.4228L14.921 24.892L16.0966 23.7164Z" fill="#FFA800"/>
<path d="M20.9752 30.9564C21.2998 31.281 21.8262 31.281 22.1508 30.9564C22.4754 30.6317 22.4754 30.1054 22.1508 29.7808L20.9752 30.9564ZM18.5059 28.4872L20.9752 30.9564L22.1508 29.7808L19.6816 27.3116L18.5059 28.4872Z" fill="#FFA800"/>
<path d="M40.3458 36.0886C40.8049 36.0886 41.1771 36.4608 41.1771 36.9199C41.1771 37.379 40.8049 37.7512 40.3458 37.7512V36.0886ZM36.8538 36.0886H40.3458V37.7512H36.8538V36.0886Z" fill="#FFA800"/>
</svg>
