<svg width="15" height="17" viewBox="0 0 15 17" fill="none" xmlns="http://www.w3.org/2000/svg">
<path d="M2.32375 10.7588L0.230957 12.8516L3.15448 15.7751L5.24727 13.6823L2.32375 10.7588ZM3.09377 14.4779C3.04904 14.5226 2.99153 14.5418 2.93721 14.5418C2.8797 14.5418 2.82219 14.5194 2.77746 14.4747L1.52817 13.2254C1.4419 13.1391 1.4419 12.9954 1.52817 12.9091C1.61444 12.8228 1.75822 12.8228 1.84449 12.9091L3.09377 14.1584C3.18004 14.251 3.18004 14.3916 3.09377 14.4779Z" fill="white"/>
<path d="M3.19604 10.9986L5.00767 12.8102L9.01114 11.7367L4.2696 6.99512L3.19604 10.9986Z" fill="white"/>
<path d="M0.3396 14.609L1.39718 15.6666L2.03301 15.2863L0.719817 13.9731L0.3396 14.609Z" fill="white"/>
<path d="M4.17383 15.3856L5.86404 16.1237L6.79382 15.1907L5.1068 14.4526L4.17383 15.3856Z" fill="white"/>
<path d="M4.86714 6.42635C4.88631 6.53498 4.97897 6.61486 5.0876 6.61486C5.10038 6.61486 5.11316 6.61486 5.12275 6.61167C5.24416 6.5925 5.32723 6.47747 5.30806 6.35606L5.06843 4.88631C5.04926 4.7649 4.93424 4.68182 4.81282 4.70099C4.69141 4.72016 4.60834 4.83519 4.62751 4.9566L4.86714 6.42635Z" fill="white"/>
<path d="M10.8163 10.3692L9.25074 10.4012C9.12613 10.4044 9.03027 10.5066 9.03027 10.628C9.03347 10.7494 9.13252 10.8485 9.25393 10.8485H9.25713L10.8227 10.8165C10.9473 10.8133 11.0432 10.7111 11.0432 10.5897C11.0432 10.4651 10.9409 10.366 10.8163 10.3692Z" fill="white"/>
<path d="M11.6821 5.92773C11.484 5.92773 11.321 6.09068 11.321 6.28878V6.82236C11.321 7.02046 11.484 7.18341 11.6821 7.18341C11.8802 7.18341 12.0431 7.02046 12.0431 6.82236V6.28878C12.0431 6.08749 11.8802 5.92773 11.6821 5.92773Z" fill="#CEFFDB"/>
<path d="M9.73629 4.08429C9.93439 4.08429 10.0973 3.92134 10.0973 3.72324V3.18966C10.0973 2.99156 9.93439 2.82861 9.73629 2.82861C9.53819 2.82861 9.37524 2.99156 9.37524 3.18966V3.72324C9.37844 3.92134 9.53819 4.08429 9.73629 4.08429Z" fill="#CEFFDB"/>
<path d="M10.7109 0.946777C8.47109 0.946777 6.65308 2.76479 6.65308 5.00456C6.65308 5.85127 6.91188 6.63726 7.356 7.28587L6.87034 8.46806L8.13241 8.13577C8.83214 8.71408 9.73316 9.06235 10.7109 9.06235C12.9506 9.06235 14.7686 7.24433 14.7686 5.00456C14.7686 2.76479 12.9506 0.946777 10.7109 0.946777ZM8.93119 3.18974C8.93119 2.74562 9.29223 2.38138 9.73955 2.38138C10.1837 2.38138 10.5479 2.74243 10.5479 3.18974V3.72333C10.5479 4.16745 10.1869 4.53169 9.73955 4.53169C9.29543 4.53169 8.93119 4.17064 8.93119 3.72333V3.18974ZM9.55104 7.23475C9.5095 7.30185 9.43601 7.33699 9.36253 7.33699C9.32099 7.33699 9.27945 7.32421 9.24111 7.30185C9.13567 7.23475 9.10692 7.09736 9.17402 6.99192L11.8675 2.77118C11.9346 2.66574 12.072 2.63699 12.1774 2.70409C12.2829 2.77118 12.3116 2.90857 12.2445 3.01401L9.55104 7.23475ZM12.4905 6.81938C12.4905 7.2635 12.1295 7.62775 11.6822 7.62775C11.2349 7.62775 10.8738 7.2667 10.8738 6.81938V6.2858C10.8738 5.84168 11.2349 5.47744 11.6822 5.47744C12.1295 5.47744 12.4905 5.83849 12.4905 6.2858V6.81938Z" fill="#34A853"/>
</svg>
