<svg width="15" height="16" viewBox="0 0 15 16" fill="none" xmlns="http://www.w3.org/2000/svg">
<path d="M2.39602 10.498L0.303223 12.5908L3.22675 15.5144L5.31954 13.4216L2.39602 10.498ZM3.16604 14.2172C3.12131 14.2619 3.0638 14.2811 3.00948 14.2811C2.95197 14.2811 2.89445 14.2587 2.84972 14.214L1.60044 12.9647C1.51417 12.8784 1.51417 12.7346 1.60044 12.6484C1.6867 12.5621 1.83048 12.5621 1.91675 12.6484L3.16604 13.8976C3.25231 13.9903 3.25231 14.1309 3.16604 14.2172Z" fill="#003087"/>
<path d="M3.26831 10.7378L5.07994 12.5495L9.0834 11.4759L4.34187 6.73438L3.26831 10.7378Z" fill="#003087"/>
<path d="M0.411865 14.3482L1.46945 15.4058L2.10527 15.0256L0.792083 13.7124L0.411865 14.3482Z" fill="#003087"/>
<path d="M4.24609 15.1249L5.93631 15.8629L6.86608 14.93L5.17907 14.1919L4.24609 15.1249Z" fill="#003087"/>
<path d="M4.93941 6.16561C4.95858 6.27424 5.05123 6.35412 5.15987 6.35412C5.17265 6.35412 5.18543 6.35412 5.19501 6.35093C5.31643 6.33175 5.3995 6.21673 5.38033 6.09532L5.1407 4.62557C5.12153 4.50415 5.0065 4.42108 4.88509 4.44025C4.76367 4.45942 4.6806 4.57445 4.69977 4.69586L4.93941 6.16561Z" fill="#003087"/>
<path d="M10.8886 10.1085L9.323 10.1404C9.19839 10.1436 9.10254 10.2459 9.10254 10.3673C9.10573 10.4887 9.20478 10.5877 9.3262 10.5877H9.32939L10.895 10.5558C11.0196 10.5526 11.1155 10.4503 11.1155 10.3289C11.1155 10.2043 11.0132 10.1053 10.8886 10.1085Z" fill="#003087"/>
<path d="M11.7544 5.66699C11.5563 5.66699 11.3933 5.82994 11.3933 6.02804V6.56162C11.3933 6.75972 11.5563 6.92267 11.7544 6.92267C11.9525 6.92267 12.1154 6.75972 12.1154 6.56162V6.02804C12.1154 5.82675 11.9525 5.66699 11.7544 5.66699Z" fill="#CEFFDB"/>
<path d="M9.80856 3.82355C10.0067 3.82355 10.1696 3.6606 10.1696 3.4625V2.92892C10.1696 2.73082 10.0067 2.56787 9.80856 2.56787C9.61046 2.56787 9.44751 2.73082 9.44751 2.92892V3.4625C9.4507 3.6606 9.61046 3.82355 9.80856 3.82355Z" fill="#CEFFDB"/>
<path d="M10.7831 0.686035C8.54336 0.686035 6.72534 2.50405 6.72534 4.74382C6.72534 5.59052 6.98415 6.37652 7.42827 7.02513L6.94261 8.20732L8.20468 7.87503C8.9044 8.45334 9.80543 8.80161 10.7831 8.80161C13.0229 8.80161 14.8409 6.98359 14.8409 4.74382C14.8409 2.50405 13.0229 0.686035 10.7831 0.686035ZM9.00345 2.929C9.00345 2.48488 9.3645 2.12064 9.81182 2.12064C10.2559 2.12064 10.6202 2.48169 10.6202 2.929V3.46258C10.6202 3.9067 10.2591 4.27095 9.81182 4.27095C9.3677 4.27095 9.00345 3.9099 9.00345 3.46258V2.929ZM9.6233 6.97401C9.58177 7.0411 9.50828 7.07625 9.43479 7.07625C9.39326 7.07625 9.35172 7.06347 9.31338 7.0411C9.20794 6.97401 9.17918 6.83662 9.24628 6.73118L11.9398 2.51044C12.0069 2.405 12.1442 2.37625 12.2497 2.44334C12.3551 2.51044 12.3839 2.64783 12.3168 2.75327L9.6233 6.97401ZM12.5628 6.55864C12.5628 7.00276 12.2018 7.367 11.7544 7.367C11.3071 7.367 10.9461 7.00596 10.9461 6.55864V6.02506C10.9461 5.58094 11.3071 5.2167 11.7544 5.2167C12.2018 5.2167 12.5628 5.57774 12.5628 6.02506V6.55864Z" fill="#003087"/>
</svg>
