<svg width="25" height="25" viewBox="0 0 25 25" fill="none" xmlns="http://www.w3.org/2000/svg">
<path d="M8.68188 13.5934C8.68188 14.8116 9.16583 15.98 10.0273 16.8414C10.8887 17.7028 12.057 18.1867 13.2753 18.1867C14.4935 18.1867 15.6618 17.7028 16.5233 16.8414C17.3847 15.98 17.8686 14.8116 17.8686 13.5934C17.8686 12.3751 17.3847 11.2068 16.5233 10.3454C15.6618 9.48394 14.4935 9 13.2753 9C12.057 9 10.8887 9.48394 10.0273 10.3454C9.16583 11.2068 8.68188 12.3751 8.68188 13.5934Z" fill="#FFB89A"/>
<path d="M17.1769 9.53522C16.9287 9.14476 16.4127 9.02763 16.0223 9.27585C15.6318 9.52406 15.5147 10.04 15.7629 10.4305C16.1534 11.0468 16.3597 11.7608 16.3597 12.4943C16.3597 12.9572 16.7335 13.331 17.1964 13.331C17.6594 13.331 18.0331 12.9572 18.0331 12.4943C18.0331 11.4428 17.7375 10.4193 17.1769 9.53522Z" fill="#33CC99"/>
<path d="M15.1719 15.2805C14.4496 15.975 13.4985 16.3571 12.4945 16.3571C10.3638 16.3571 8.63186 14.6251 8.63186 12.4944C8.63186 10.3636 10.3638 8.63172 12.4945 8.63172C13.1332 8.63172 13.7412 8.78232 14.3018 9.07795C14.7089 9.29548 15.2165 9.1393 15.4341 8.72933C15.6516 8.32214 15.4954 7.81456 15.0854 7.59702C14.2934 7.17589 13.3981 6.95557 12.4945 6.95557C9.44065 6.95557 6.9585 9.44051 6.9585 12.4916C6.9585 15.5455 9.44344 18.0304 12.4973 18.0304C13.9336 18.0304 15.2974 17.481 16.3321 16.4854C16.664 16.1646 16.6751 15.6347 16.3544 15.3028C16.0365 14.971 15.5066 14.9598 15.1719 15.2805Z" fill="#33CC99"/>
<path d="M22.0409 8.55924C21.5557 7.38231 21.6449 6.03525 22.2557 4.69378C21.6888 3.98465 21.0463 3.33939 20.3397 2.76941C18.9954 3.3774 17.6456 3.46386 16.4687 2.97579C15.2889 2.48494 14.3965 1.46419 13.8805 0.0753011C13.4231 0.0251003 12.9602 0 12.4916 0C12.0482 0 11.6103 0.0223115 11.178 0.0697233C10.6565 1.45861 9.76406 2.47936 8.58155 2.97021C7.39625 3.46107 6.03804 3.36345 4.68541 2.74152C3.9826 3.30489 3.34393 3.94076 2.77778 4.64079C3.39971 5.99621 3.49174 7.35442 2.9981 8.5425C2.50446 9.73059 1.47535 10.623 0.0725122 11.139C0.0251004 11.5852 0 12.0398 0 12.4972C0 12.9462 0.0251004 13.3897 0.0697233 13.8247C1.46977 14.3435 2.49888 15.2415 2.98974 16.4296C3.48059 17.6177 3.38298 18.9759 2.76104 20.3313C3.32441 21.0313 3.96307 21.67 4.66589 22.2362C6.02131 21.617 7.37952 21.525 8.56482 22.0186C9.74732 22.5095 10.637 23.533 11.1557 24.9247C11.5964 24.9721 12.0454 24.9972 12.5 24.9972C12.9602 24.9972 13.412 24.9721 13.8582 24.9247C14.3797 23.5358 15.2722 22.5179 16.4547 22.0298C17.6316 21.5445 18.9815 21.6338 20.3257 22.2445C21.0341 21.6756 21.6784 21.0313 22.2473 20.323C21.6393 18.9787 21.5529 17.6316 22.0437 16.4547C22.5318 15.2806 23.547 14.3909 24.9247 13.8749C24.9749 13.4231 25 12.963 25 12.5C25 12.0454 24.9749 11.5964 24.9275 11.1557C23.5386 10.6258 22.529 9.73617 22.0409 8.55924ZM20.4875 15.8077C19.8795 17.2719 19.9018 18.8978 20.5042 20.5015C18.9006 19.8963 17.2747 19.8684 15.8105 20.4736C14.3435 21.0788 13.2112 22.2445 12.5028 23.8035C11.7972 22.2417 10.6677 21.0732 9.20348 20.4652C8.48394 20.1668 7.72256 20.019 6.94723 20.019C6.14402 20.019 5.32407 20.1751 4.50971 20.4819C5.1149 18.8783 5.14279 17.2523 4.5376 15.7882C3.9324 14.3212 2.76662 13.1889 1.20761 12.4805C2.76941 11.7749 3.93797 10.6454 4.54596 9.18117C5.15395 7.71698 5.13164 6.09103 4.52923 4.48739C5.34917 4.79697 6.1747 4.95594 6.9807 4.95594C7.75324 4.95594 8.50625 4.81091 9.223 4.51528C10.69 3.91008 11.8223 2.74431 12.5307 1.1853C13.2363 2.7471 14.3658 3.91566 15.83 4.52365C17.2942 5.13164 18.9201 5.10933 20.5238 4.50692C19.9186 6.11055 19.8907 7.7365 20.4959 9.20069C21.1011 10.6677 22.2668 11.8 23.8259 12.5084C22.2641 13.2112 21.0955 14.3407 20.4875 15.8077Z" fill="#45484C"/>
</svg>
