<svg width="48" height="48" viewBox="0 0 48 48" fill="none" xmlns="http://www.w3.org/2000/svg">
<rect x="0.341309" y="0.000976562" width="47.2306" height="47.2306" rx="15" fill="#74E3FF"/>
<path d="M15.7676 28.7764H21.8613C22.377 28.7764 22.7988 28.3545 22.7988 27.8389V13.7764C22.7988 12.7451 21.8613 11.9014 20.9238 11.9014H15.9082C15.2988 11.9014 14.8301 12.3701 14.8301 12.9795V27.8389C14.8301 28.3545 15.252 28.7764 15.7676 28.7764ZM36.3926 14.7139V29.7139C36.3926 30.7451 35.5488 31.5889 34.5176 31.5889H13.8926C12.8613 31.5889 12.0176 30.7451 12.0176 29.7139V14.7139C10.4707 14.7139 9.20508 15.9795 9.20508 17.5264V31.5889C9.20508 33.1357 10.4707 34.4014 12.0176 34.4014H20.9238C21.4395 34.4014 21.8613 34.8232 21.8613 35.3389C21.8613 35.8545 22.2832 36.2764 22.7988 36.2764H25.6113C26.127 36.2764 26.5488 35.8545 26.5488 35.3389C26.5488 34.8232 26.9707 34.4014 27.4863 34.4014H36.3926C37.9395 34.4014 39.2051 33.1357 39.2051 31.5889V17.5264C39.2051 15.9795 37.9395 14.7139 36.3926 14.7139ZM26.5488 28.7764H32.502C33.1113 28.7764 33.5801 28.3076 33.5801 27.6982V12.8389C33.5801 12.3232 33.1582 11.9014 32.6426 11.9014H27.4863C26.5488 11.9014 25.6113 12.7451 25.6113 13.7764V27.8389C25.6113 28.3545 26.0332 28.7764 26.5488 28.7764Z" fill="white"/>
</svg>
