<svg width="25" height="27" viewBox="0 0 25 27" fill="none" xmlns="http://www.w3.org/2000/svg">
<path d="M11.2903 10.6837C11.2903 11.3518 11.8319 11.8934 12.5 11.8934C13.1681 11.8934 13.7097 11.3518 13.7097 10.6837H11.2903ZM13.7097 1.20966C13.7097 0.54159 13.1681 0 12.5 0C11.8319 0 11.2903 0.54159 11.2903 1.20966H13.7097ZM8.16267 5.50245C8.77069 5.22559 9.03908 4.50825 8.76231 3.90024C8.48538 3.29223 7.76805 3.0238 7.16004 3.30067L8.16267 5.50245ZM1.20982 14.3708L0 14.3645L0.000242261 14.3848L1.20982 14.3708ZM12.5 25.4029L12.5139 24.1932C12.5047 24.1932 12.4953 24.1932 12.4861 24.1932L12.5 25.4029ZM23.7902 14.3708L25 14.3848L24.9998 14.3645L23.7902 14.3708ZM17.8399 3.30067C17.2319 3.0238 16.5146 3.29223 16.2377 3.90024C15.9609 4.50825 16.2293 5.22559 16.8374 5.50245L17.8399 3.30067ZM13.7097 10.6837V1.20966H11.2903V10.6837H13.7097ZM7.16004 3.30067C2.82017 5.27688 0.0249835 9.59586 0 14.3645L2.41947 14.3771C2.43952 10.5521 4.68149 7.08765 8.16267 5.50245L7.16004 3.30067ZM0.000242261 14.3848C0.0797574 21.2168 5.68199 26.6909 12.5139 26.6126L12.4861 24.1932C6.99014 24.2565 2.48337 19.8526 2.4194 14.3568L0.000242261 14.3848ZM12.4861 26.6126C19.318 26.6909 24.9206 21.2168 25 14.3848L22.5807 14.3568C22.5166 19.8526 18.0099 24.2565 12.5139 24.1932L12.4861 26.6126ZM24.9998 14.3645C24.9748 9.59586 22.1799 5.27688 17.8399 3.30067L16.8374 5.50245C20.3184 7.08765 22.5605 10.5521 22.5805 14.3771L24.9998 14.3645Z" fill="#FF2E00"/>
</svg>
