<svg width="15" height="26" viewBox="0 0 15 26" fill="none" xmlns="http://www.w3.org/2000/svg">
<path d="M13.8224 0H1.17761C0.528334 0 0 0.528292 0 1.17757V24.1782C0 24.8274 0.528334 25.3557 1.17761 25.3557H13.8224C14.4717 25.3557 15 24.8274 15 24.1782V1.17758C15 0.528306 14.4717 0 13.8224 0ZM1.17761 0.886646H13.8224C13.9829 0.886646 14.1134 1.01714 14.1134 1.17758V3.6213H0.886674V1.17758C0.886674 1.01714 1.01717 0.886646 1.17761 0.886646ZM14.1134 4.06474V20.6155H0.886674V4.06474H14.1134ZM13.8224 24.4691H1.17761C1.01717 24.4691 0.886674 24.3386 0.886674 24.1782V21.0589H14.1134V24.1782C14.1134 24.3386 13.9829 24.4691 13.8224 24.4691Z" fill="#9F9F9F"/>
<path d="M8.20675 1.97461H7.58791H7.4123H6.79344C6.67099 1.97461 6.57178 2.07382 6.57178 2.19627C6.57178 2.3186 6.67099 2.41794 6.79344 2.41794H7.4123H7.58791H8.20675C8.32921 2.41794 8.42842 2.3186 8.42842 2.19627C8.42842 2.07382 8.32922 1.97461 8.20675 1.97461Z" fill="#9F9F9F"/>
<path d="M7.49998 21.7144C6.93717 21.7144 6.47925 22.1721 6.47925 22.735C6.47925 23.2978 6.93717 23.7557 7.49998 23.7557C8.06277 23.7557 8.52068 23.2978 8.52068 22.735C8.52068 22.1721 8.06277 21.7144 7.49998 21.7144ZM7.49998 23.3124C7.1816 23.3124 6.92258 23.0533 6.92258 22.7349C6.92258 22.4167 7.1816 22.1577 7.49998 22.1577C7.81834 22.1577 8.07737 22.4167 8.07737 22.7349C8.07737 23.0534 7.81834 23.3124 7.49998 23.3124Z" fill="#9F9F9F"/>
</svg>
