<svg width="74" height="75" viewBox="0 0 74 75" fill="none" xmlns="http://www.w3.org/2000/svg">
<circle cx="37.072" cy="34.7285" r="33.8734" fill="#CACACA"/>
<circle cx="37.072" cy="34.7285" r="33.8734" stroke="white" stroke-width="0.899714"/>
<circle cx="37.072" cy="34.7285" r="33.8734" stroke="#CACACA" stroke-width="0.899714"/>
<g filter="url(#filter0_d_274_2531)">
<circle cx="37.072" cy="34.7289" r="32.2563" fill="#CACACA"/>
<circle cx="37.072" cy="34.7289" r="31.8064" stroke="white" stroke-width="0.899714"/>
</g>
<path d="M37.072 35.4941C42.2292 35.4941 46.4099 31.3134 46.4099 26.1562C46.4099 20.9991 42.2292 16.8184 37.072 16.8184C31.9148 16.8184 27.7341 20.9991 27.7341 26.1562C27.7341 31.3134 31.9148 35.4941 37.072 35.4941Z" stroke="white" stroke-width="1.79943" stroke-miterlimit="10"/>
<path d="M19.9607 52.606L20.5637 49.2653C21.276 45.407 23.3173 41.9202 26.3331 39.4105C29.3489 36.9008 33.1485 35.5269 37.072 35.5273C41.0001 35.5283 44.8034 36.9069 47.8199 39.423C50.8363 41.9392 52.8747 45.4336 53.5803 49.2978L54.1832 52.6386" stroke="white" stroke-width="1.79943" stroke-miterlimit="10"/>
<defs>
<filter id="filter0_d_274_2531" x="0.815674" y="2.47266" width="72.5125" height="72.5127" filterUnits="userSpaceOnUse" color-interpolation-filters="sRGB">
<feFlood flood-opacity="0" result="BackgroundImageFix"/>
<feColorMatrix in="SourceAlpha" type="matrix" values="0 0 0 0 0 0 0 0 0 0 0 0 0 0 0 0 0 0 127 0" result="hardAlpha"/>
<feOffset dy="4"/>
<feGaussianBlur stdDeviation="2"/>
<feComposite in2="hardAlpha" operator="out"/>
<feColorMatrix type="matrix" values="0 0 0 0 0 0 0 0 0 0 0 0 0 0 0 0 0 0 0.25 0"/>
<feBlend mode="normal" in2="BackgroundImageFix" result="effect1_dropShadow_274_2531"/>
<feBlend mode="normal" in="SourceGraphic" in2="effect1_dropShadow_274_2531" result="shape"/>
</filter>
</defs>
</svg>
