<svg width="48" height="49" viewBox="0 0 48 49" fill="none" xmlns="http://www.w3.org/2000/svg">
<rect x="0.341309" y="0.941895" width="47.2306" height="47.2306" rx="15" fill="#B3E3FF"/>
<path d="M21.8562 10.9371V23.4021C21.8562 24.9321 23.1012 26.1771 24.6312 26.1771H38.3562C39.1812 26.1771 39.8562 25.5021 39.8562 24.6771V15.0921C39.8562 12.0321 37.3812 9.55713 34.3212 9.55713H23.2512C22.4712 9.55713 21.8562 10.1721 21.8562 10.9371Z" fill="#00A3FF"/>
<path d="M10.6062 29.8071C10.1862 29.8071 9.8562 30.1371 9.8562 30.5571V32.0571C9.8562 34.5471 11.8662 36.5571 14.3562 36.5571C14.3562 34.0821 16.3812 32.0571 18.8562 32.0571C21.3312 32.0571 23.3562 34.0821 23.3562 36.5571H26.3562C26.3562 34.0821 28.3812 32.0571 30.8562 32.0571C33.3312 32.0571 35.3562 34.0821 35.3562 36.5571C37.8462 36.5571 39.8562 34.5471 39.8562 32.0571V29.0571C39.8562 28.2321 39.1812 27.5571 38.3562 27.5571H24.1062C22.0362 27.5571 20.3562 25.8771 20.3562 23.8071V15.5571C20.3562 14.7321 19.6812 14.0571 18.8562 14.0571H17.5962C16.5162 14.0571 15.5262 14.6421 14.9862 15.5721L14.0262 17.2521C13.8912 17.4921 14.0712 17.8071 14.3562 17.8071C16.4262 17.8071 18.1062 19.4871 18.1062 21.5571V26.0571C18.1062 28.1271 16.4262 29.8071 14.3562 29.8071H10.6062Z" fill="#00A3FF"/>
<path d="M30.8562 39.5571C29.1993 39.5571 27.8562 38.214 27.8562 36.5571C27.8562 34.9002 29.1993 33.5571 30.8562 33.5571C32.5131 33.5571 33.8562 34.9002 33.8562 36.5571C33.8562 38.214 32.5131 39.5571 30.8562 39.5571Z" fill="#00A3FF"/>
<path d="M18.8562 39.5571C17.1993 39.5571 15.8562 38.214 15.8562 36.5571C15.8562 34.9002 17.1993 33.5571 18.8562 33.5571C20.5131 33.5571 21.8562 34.9002 21.8562 36.5571C21.8562 38.214 20.5131 39.5571 18.8562 39.5571Z" fill="#00A3FF"/>
<path d="M9.8562 25.3521V27.5571H14.3562C15.1812 27.5571 15.8562 26.8821 15.8562 26.0571V21.5571C15.8562 20.7321 15.1812 20.0571 14.3562 20.0571H12.4212L10.2462 23.8671C9.9912 24.3171 9.8562 24.8271 9.8562 25.3521Z" fill="#00A3FF"/>
</svg>
