<svg width="35" height="35" viewBox="0 0 35 35" fill="none" xmlns="http://www.w3.org/2000/svg">
<path d="M18.7327 8.50109C17.3383 7.9796 14.3794 9.63466 11.9306 11.8H10.1167C8.91404 11.8 7.76062 12.2778 6.91021 13.1282C6.05978 13.9786 5.58203 15.132 5.58203 16.3347V18.6021C5.58203 19.8047 6.05978 20.9582 6.91021 21.8086C7.76062 22.659 8.91404 23.1367 10.1167 23.1367H11.9306C14.3227 25.3361 17.2816 26.9572 18.7327 26.4471C21.1134 25.5628 21.5101 20.7787 21.5101 17.4684C21.5101 14.158 21.1134 9.38535 18.7327 8.50109Z" stroke="#232E53" stroke-width="1.70051" stroke-linecap="round" stroke-linejoin="round"/>
<path d="M27.9277 11.0176C29.6272 12.7182 30.582 15.0242 30.582 17.4285C30.582 19.8328 29.6272 22.1388 27.9277 23.8394" stroke="#232E53" stroke-width="1.70051" stroke-linecap="round" stroke-linejoin="round"/>
<path d="M25.5229 21.4819C26.5855 20.4188 27.1825 18.9772 27.1825 17.4742C27.1825 15.9712 26.5855 14.5298 25.5229 13.4668" stroke="#232E53" stroke-width="1.70051" stroke-linecap="round" stroke-linejoin="round"/>
</svg>
